Coordinates
version=1
nRows=19
nColumns=36
inDegrees=yes

Units are S.I. units (second, meters, Newtons, ...)
If the header above contains a line with 'inDegrees', this indicates whether rotational values are in degrees (yes) or radians (no).

endheader
time	pelvis_tilt	pelvis_list	pelvis_rotation	pelvis_tx	pelvis_ty	pelvis_tz	hip_flexion_r	hip_adduction_r	hip_rotation_r	knee_angle_r	knee_angle_r_beta	ankle_angle_r	subtalar_angle_r	mtp_angle_r	hip_flexion_l	hip_adduction_l	hip_rotation_l	knee_angle_l	knee_angle_l_beta	ankle_angle_l	subtalar_angle_l	mtp_angle_l	lumbar_extension	lumbar_bending	lumbar_rotation	arm_flex_r	arm_add_r	arm_rot_r	elbow_flex_r	pro_sup_r	arm_flex_l	arm_add_l	arm_rot_l	elbow_flex_l	pro_sup_l
      4.47457630	     -7.96122845	      0.79312689	     -3.56840910	      0.32014563	      1.00325941	     -0.13239585	     12.62819004	     -6.38407518	      9.76370643	      5.34560312	      0.09329837	      3.51182961	     -5.76110220	     -7.49999987	     12.65914416	     -0.82783019	     -1.08730525	     10.08588020	      0.17603182	      2.30723473	    -11.74477449	     -7.49999987	     -3.55416592	     -1.31254203	    -10.02364660	    -16.47613013	    -16.49358656	      3.05659864	     78.73502962	     75.74224431	    162.30549140	   -156.75437834	    162.31211455	    101.84838060	     77.08969222
      4.49152540	     -8.22507999	      0.87769155	     -3.76621806	      0.32044927	      1.00687794	     -0.13300306	     13.13442279	     -6.45060976	      9.85857689	      5.38233020	      0.09393938	      3.17189235	     -5.79088935	     -7.49999987	     12.83219910	     -0.69433162	     -0.78804616	      9.81309672	      0.17127085	      1.99536391	    -12.40295618	     -7.49999987	     -3.20806967	     -1.03616921	     -9.80509154	    -15.98352526	    -15.80914746	      3.15163775	     75.67958941	     74.84458127	    162.63331311	   -157.65265247	    162.65654939	    100.54412564	     76.64781502
      4.50847460	     -8.28424227	      0.93140353	     -3.89768970	      0.32526703	      1.01570676	     -0.12709830	     13.02476436	     -6.41808781	      9.90256787	      5.04161232	      0.08799273	      2.69975229	     -5.51171421	     -7.49999987	     12.59527288	     -0.70435411	     -0.35901437	      9.38545176	      0.16380703	      1.29950523	    -13.03147961	     -7.49999987	     -2.85066857	     -0.92916061	     -9.31501521	    -15.87403738	    -14.50512993	      2.67806116	     71.99174188	     75.20957679	    163.18171208	   -158.48994069	    163.19984050	     98.13891806	     80.44967697
      4.52542370	     -8.11786268	      0.86504556	     -3.97093131	      0.32941807	      1.00982087	     -0.12355572	     12.50455123	     -6.27453559	      9.77668982	      4.65444231	      0.08123534	      2.54241048	     -4.97825166	     -7.49999987	     12.05748625	     -0.88281781	     -0.32342341	      9.07301965	      0.15835407	      1.10512283	    -13.11585727	     -7.49999987	     -2.81244036	     -0.77755027	     -8.92670623	    -16.04528487	    -13.28729891	      2.50108776	     68.84479683	     74.01845840	    163.20021776	   -159.15468246	    163.36129515	     96.79714470	     79.11314255
      4.54237290	     -8.00535478	      0.80612380	     -4.06996414	      0.33373823	      1.01275415	     -0.11795314	     11.88770909	     -6.06102654	      9.87952338	      4.16173247	      0.07263593	      2.25693143	     -4.76374358	     -7.49999987	     11.39072661	     -1.15776474	     -0.28485424	      8.56417041	      0.14947297	      0.73264482	    -13.09759862	     -7.49999987	     -2.36177954	     -0.77465415	     -8.55185560	    -15.67208899	    -11.51076185	      2.18174206	     64.16356627	     73.96556775	    162.94965374	   -159.77944331	    163.59688390	     95.05378614	     79.33592201
      4.55932200	     -7.91404688	      0.69898626	     -4.10155893	      0.33332470	      1.01600804	     -0.11943500	     11.43757205	     -5.81769635	      9.72113188	      3.79842514	      0.06629503	      2.20473756	     -4.54250096	     -7.49999987	     10.91179240	     -1.39764123	     -0.24775380	      8.18903291	      0.14292559	      0.56274846	    -12.93873856	     -7.49999987	     -2.13121964	     -0.71196993	     -8.10874743	    -14.52632805	    -10.48285933	      2.78341224	     59.17701837	     74.07653725	    162.84176740	   -160.10418104	    165.12032422	     93.75317907	     79.99502242
      4.57627120	     -7.65145759	      0.65827524	     -4.08596869	      0.33314579	      1.01804992	     -0.11857008	     10.72331229	     -5.71112277	      9.66378363	      3.27077734	      0.05708583	      2.03655842	     -4.32775738	     -7.49999987	     10.24928030	     -1.53620400	     -0.25843001	      7.75832351	      0.13540829	      0.24410553	    -12.73136853	     -7.49999987	     -1.95645472	     -0.79439330	     -7.80047614	    -13.59405447	     -9.53498071	      3.18875979	     54.76808649	     73.73026348	    162.78151401	   -160.61630533	    166.19030892	     92.62243290	     80.28249777
      4.59322030	     -7.50411748	      0.61125797	     -4.11913311	      0.32873329	      1.01491795	     -0.11509941	     10.36270078	     -5.53982623	      9.76839344	      2.94336246	      0.05137137	      1.96707680	     -4.27023794	     -7.49999987	      9.90263390	     -1.71461326	     -0.33181490	      7.46114980	      0.13022163	      0.09476232	    -12.52929603	     -7.49999987	     -1.91686355	     -0.88367547	     -7.62005505	    -12.42284569	     -8.75496724	      3.62719341	     51.11255213	     74.41221010	    162.67840235	   -161.03958775	    166.76581726	     92.05599966	     84.42555749
      4.61016950	     -7.36993302	      0.52915389	     -4.02513806	      0.33263550	      1.01079279	     -0.11861485	      9.99308613	     -5.42044712	      9.61933335	      2.64109432	      0.04609579	      1.84041972	     -4.29374107	     -7.49999987	      9.62332676	     -1.82118444	     -0.34178231	      7.22432576	      0.12608827	      0.04360731	    -12.33171650	     -7.49999987	     -1.79392703	     -0.85156366	     -7.45454528	    -11.71757559	     -8.33615752	      3.53680835	     48.01614035	     73.88288131	    162.78784170	   -161.44806346	    168.20195279	     90.11799215	     83.97633635
      4.62711860	     -7.14541704	      0.44962846	     -3.87536735	      0.33661299	      1.00870574	     -0.11591849	      9.45112840	     -5.26570117	      9.62934288	      2.37548852	      0.04146010	      1.78348757	     -4.50728210	     -7.49999987	      9.23578699	     -1.95299524	     -0.37344900	      7.09637476	      0.12385510	      0.02193085	    -12.33966039	     -7.49999987	     -1.75106409	     -0.89913490	     -7.45253507	    -11.34289975	     -7.88549383	      2.69549933	     45.56368692	     73.81321358	    162.86891843	   -161.98569552	    168.98088538	     88.02433458	     84.25176839
      4.64406780	     -6.98622278	      0.39594912	     -3.72848368	      0.33239896	      1.00871933	     -0.11023570	      9.12983510	     -5.09360879	      9.57637696	      2.35637324	      0.04112647	      1.78880683	     -4.90588764	     -7.49999987	      9.11116091	     -2.12736856	     -0.37694191	      7.16601352	      0.12507053	     -0.05786165	    -12.39149319	     -7.49999987	     -1.70258229	     -1.01912637	     -7.36480590	    -10.96554786	     -7.44084095	      1.63249695	     43.51181447	     73.70263772	    162.99953644	   -162.33336772	    169.16918876	     86.30559195	     84.47335365
      4.66101690	     -6.96310633	      0.28532844	     -3.52745727	      0.33636888	      1.00358887	     -0.10781114	      8.86652841	     -4.83300452	      9.69688672	      2.28945837	      0.03995859	      1.82791730	     -5.43843642	     -7.49999987	      9.08968251	     -2.38920889	     -0.40803056	      7.27772519	      0.12702027	      0.10740589	    -12.21291417	     -7.49999987	     -1.43208201	     -1.06803430	     -6.91626145	    -11.37512398	     -6.70898850	     -1.32496841	     42.58386618	     75.19403908	    163.18080218	   -162.46193873	    169.74593026	     85.34742782	     87.41528176
      4.67796610	     -6.94055205	      0.16000913	     -3.32020354	      0.33632626	      1.00098043	     -0.10729717	      8.63517643	     -4.56032986	      9.52663544	      2.22144175	      0.03877147	      1.93339954	     -5.72357384	     -7.49999987	      9.13567424	     -2.65111618	     -0.44628143	      7.35922578	      0.12844272	      0.36902219	    -11.90388735	     -7.49999987	     -1.18916108	     -1.11963477	     -6.98338053	    -11.43693167	     -6.62503471	     -2.26621044	     41.91278592	     74.08158788	    162.88772999	   -162.58341606	    169.75529046	     84.64218328	     85.74323389
      4.69491530	     -7.04128285	      0.04785936	     -3.14943015	      0.33621936	      0.99918768	     -0.10896686	      8.58262049	     -4.33131673	      9.71196920	      2.16075371	      0.03771227	      1.85960766	     -6.46790476	     -7.49999987	      9.36197766	     -2.82479411	     -0.51406087	      7.55343049	      0.13183223	      0.67175378	    -11.67867950	     -7.49999987	     -0.81311621	     -1.16859545	     -6.93194310	    -11.70308671	     -6.35395051	     -4.83322965	     42.11732960	     75.89726169	    162.53206181	   -162.95453815	    169.28507409	     84.05304834	     89.24513246
      4.71186440	     -7.13866111	     -0.00908272	     -3.01311030	      0.33611224	      1.00256177	     -0.10815524	      8.56015511	     -4.19345415	      9.86279505	      2.06710030	      0.03607771	      1.77909292	     -6.93071448	     -7.49999987	      9.51419622	     -2.96813158	     -0.53608438	      7.55877834	      0.13192557	      0.79958548	    -11.37585542	     -7.49999987	     -0.41272381	     -1.21006099	     -6.92270443	    -11.80069686	     -6.49318854	     -5.80149070	     42.04283900	     74.77853255	    162.30529503	   -163.24700015	    169.31478760	     82.75602789	     87.42278671
      4.72881360	     -7.15884688	     -0.08607605	     -2.81490653	      0.33597140	      1.00340007	     -0.10971756	      8.43694558	     -4.11426687	      9.68023665	      1.90994697	      0.03333486	      1.79435590	     -6.96896975	     -7.49999987	      9.55932712	     -3.04846287	     -0.44138804	      7.51684223	      0.13119365	      1.05120309	    -10.96956016	     -7.49999987	     -0.18073443	     -1.12822195	     -6.78630270	    -11.81005251	     -6.69882348	     -6.55397242	     42.02826329	     72.44743143	    162.17248849	   -163.45254306	    170.18883701	     81.54167793	     83.93559913
      4.74576270	     -7.22873175	     -0.15067307	     -2.68243236	      0.33587345	      1.00343086	     -0.10889114	      8.41951437	     -4.01653352	      9.77924121	      1.73651302	      0.03030787	      1.50129707	     -7.41922374	     -7.49999987	      9.65696707	     -3.11830831	     -0.30325283	      7.48337562	      0.13060954	      1.05076513	    -11.06738254	     -7.49999987	      0.06711404	     -1.08316600	     -6.60569442	    -11.70104083	     -6.79553865	     -7.16286331	     41.57299155	     71.65320192	    162.09566110	   -163.66894322	    170.75068264	     80.09301926	     82.89334816
      4.76271190	     -7.29165168	     -0.16211787	     -2.65362183	      0.33583940	      1.00998403	     -0.11022997	      8.42062464	     -4.01524753	      9.81315132	      1.61435037	      0.02817573	      1.38105653	     -7.46397442	     -7.49999987	      9.66354485	     -3.12662109	     -0.35673745	      7.25181672	      0.12656808	      0.91511836	    -10.78868387	     -7.49999987	      0.34715710	     -0.97414681	     -6.44157247	    -11.67652737	     -6.82850695	     -8.78065409	     41.70043094	     76.16202841	    162.11135901	   -164.08639352	    170.46120548	     78.19866626	     90.79620816
      4.77966100	     -7.29655007	     -0.18809724	     -2.56763953	      0.33593129	      1.00344500	     -0.10895050	      8.37237483	     -3.94566566	      9.85451606	      1.44118979	      0.02515351	      1.22199154	     -7.52538677	     -7.49999987	      9.62406213	     -3.13563369	     -0.38050087	      7.13739649	      0.12457107	      0.95766400	    -10.77048043	     -7.49999987	      0.45822605	     -0.94214754	     -6.49244909	    -11.58943491	     -7.02328623	     -8.88768307	     41.99763184	     74.77803272	    161.94198496	   -164.12242826	    170.61735917	     76.70024139	     88.41860081
